<svg xmlns="http://www.w3.org/2000/svg" width="793" height="957" viewBox="0 0 793 957" fill="none"><path d="M111 113.392C111 96.823 124.431 83.3915 141 83.3915H653C669.569 83.3915 683 96.823 683 113.392V624.969C683 630.856 676.856 634.727 671.546 632.185L628.465 611.563C625.769 610.273 622.819 609.603 619.83 609.603H141C124.431 609.603 111 596.172 111 579.603V113.392Z" fill="#9610FF"></path><path d="M248.962 530V166H333.202L466.322 389.08V166H544.322V530H460.082L326.962 306.92V530H248.962Z" fill="white"></path><path d="M111.96 857V740.8H133.872L182.925 820.397V740.8H203.177V857H181.348L132.212 777.403V857H111.96ZM258.39 859.158C250.754 859.158 243.782 857.194 237.474 853.265C231.221 849.336 226.214 844.08 222.451 837.495C218.744 830.855 216.89 823.523 216.89 815.5C216.89 809.413 217.969 803.742 220.127 798.485C222.285 793.173 225.245 788.525 229.008 784.541C232.826 780.502 237.253 777.348 242.288 775.079C247.323 772.81 252.691 771.676 258.39 771.676C266.026 771.676 272.97 773.64 279.223 777.569C285.531 781.498 290.539 786.782 294.246 793.422C298.009 800.062 299.89 807.421 299.89 815.5C299.89 821.531 298.811 827.175 296.653 832.432C294.495 837.689 291.507 842.337 287.689 846.376C283.926 850.36 279.527 853.486 274.492 855.755C269.512 858.024 264.145 859.158 258.39 859.158ZM258.39 838.906C262.429 838.906 266.054 837.827 269.263 835.669C272.472 833.511 274.99 830.661 276.816 827.12C278.697 823.579 279.638 819.705 279.638 815.5C279.638 811.184 278.67 807.255 276.733 803.714C274.852 800.117 272.279 797.268 269.014 795.165C265.805 793.007 262.263 791.928 258.39 791.928C254.406 791.928 250.809 793.007 247.6 795.165C244.391 797.323 241.845 800.2 239.964 803.797C238.083 807.394 237.142 811.295 237.142 815.5C237.142 819.871 238.11 823.828 240.047 827.369C241.984 830.91 244.557 833.732 247.766 835.835C251.031 837.882 254.572 838.906 258.39 838.906ZM312.814 857V774H333.066V781.387C335.888 778.399 339.263 776.047 343.192 774.332C347.12 772.561 351.353 771.676 355.891 771.676C361.645 771.676 366.93 773.032 371.744 775.743C376.613 778.454 380.486 782.079 383.364 786.616C386.296 782.079 390.17 778.454 394.984 775.743C399.798 773.032 405.082 771.676 410.837 771.676C416.923 771.676 422.429 773.17 427.354 776.158C432.334 779.091 436.29 783.047 439.223 788.027C442.211 792.952 443.705 798.457 443.705 804.544V857H423.453V809.939C423.453 806.73 422.65 803.797 421.046 801.141C419.496 798.43 417.394 796.272 414.738 794.667C412.137 793.007 409.204 792.177 405.94 792.177C402.675 792.177 399.715 792.979 397.059 794.584C394.458 796.133 392.355 798.236 390.751 800.892C389.146 803.548 388.344 806.564 388.344 809.939V857H368.092V809.939C368.092 806.564 367.317 803.548 365.768 800.892C364.218 798.236 362.116 796.133 359.46 794.584C356.804 792.979 353.843 792.177 350.579 792.177C347.369 792.177 344.437 793.007 341.781 794.667C339.125 796.272 336.994 798.43 335.39 801.141C333.84 803.797 333.066 806.73 333.066 809.939V857H312.814ZM460.333 774H480.585V857H460.333V774ZM470.625 763.293C467.637 763.293 465.119 762.325 463.072 760.388C461.025 758.396 460.001 755.906 460.001 752.918C460.001 749.985 461.025 747.523 463.072 745.531C465.119 743.539 467.609 742.543 470.542 742.543C473.475 742.543 475.937 743.539 477.929 745.531C479.976 747.523 481 749.985 481 752.918C481 755.906 480.004 758.396 478.012 760.388C476.02 762.325 473.558 763.293 470.625 763.293ZM507.591 859.158C504.714 859.158 502.252 858.162 500.204 856.17C498.212 854.123 497.216 851.633 497.216 848.7C497.216 845.878 498.212 843.443 500.204 841.396C502.252 839.349 504.714 838.325 507.591 838.325C510.469 838.325 512.931 839.349 514.978 841.396C517.026 843.443 518.049 845.878 518.049 848.7C518.049 851.633 517.026 854.123 514.978 856.17C512.931 858.162 510.469 859.158 507.591 859.158ZM576.827 740.8H600.15L642.397 857H620.9L613.43 836.416H563.63L556.16 857H534.663L576.827 740.8ZM571.017 816.164H605.96L588.447 768.273L571.017 816.164ZM658.813 857V740.8H679.065V857H658.813Z" fill="#9610FF"></path></svg>